<?xml version="1.0" encoding="UTF-8"?>
<svg width="26.407mm" height="15.372mm" version="1.1" viewBox="0 0 26.407 15.372" xmlns="http://www.w3.org/2000/svg"><g transform="matrix(1.012 0 0 .98809 -98.186 -108.64)" fill="#808080" style="font-feature-settings:normal;font-variant-caps:normal;font-variant-ligatures:normal;font-variant-numeric:normal" aria-label="U"><path d="m110.12 125.51q-0.89298 0-1.5308-0.34942-0.63229-0.35498-0.96508-1.0261-0.33278-0.67666-0.33278-1.6251v-5.1471h1.1315v5.1859q0 0.88188 0.44372 1.3644 0.44371 0.48254 1.2535 0.48254 0.81532 0 1.259-0.48254 0.44926-0.48254 0.44926-1.3644v-5.1859h1.1315v5.1471q0 0.94844-0.33278 1.6251-0.33279 0.67111-0.97063 1.0261-0.63783 0.34942-1.5364 0.34942z" fill="#808080" stroke-width=".28398" style="font-feature-settings:normal;font-variant-caps:normal;font-variant-ligatures:normal;font-variant-numeric:normal"/></g><g transform="translate(-98.186 -108.64)" fill="#333" style="font-feature-settings:normal;font-variant-caps:normal;font-variant-ligatures:normal;font-variant-numeric:normal" aria-label="B"><path d="m115.11 122.02h4.1654q1.6387 0 2.3893-0.62376t0.75063-1.755v-0.0317q0-0.78235-0.27488-1.3427-0.26431-0.56033-0.84578-0.85635-0.58147-0.3066-1.4907-0.3066h-4.6941v-1.9453h4.6941q1.1947 0 1.7973-0.56033 0.61319-0.56033 0.61319-1.6598 0-1.1524-0.67663-1.7233-0.67662-0.5709-2.0299-0.5709h-4.398v-1.9982h4.7892q1.4907 0 2.495 0.50747 1.0044 0.50746 1.5013 1.4378 0.49689 0.93035 0.49689 2.2202 0 0.79292-0.30659 1.4907-0.3066 0.68719-0.94093 1.1841-0.62376 0.48633-1.5541 0.65548 0.93036 0.13744 1.607 0.66605 0.67662 0.51804 1.0361 1.3004 0.35945 0.78235 0.35945 1.6916v0.0317q0 1.2475-0.54975 2.199-0.54976 0.95149-1.5753 1.4695-1.0255 0.51804-2.3893 0.51804h-4.9689zm-1.2687-13.374h2.1462v15.372h-2.1462z" fill="#333" stroke-width=".5413" style="font-feature-settings:normal;font-variant-caps:normal;font-variant-ligatures:normal;font-variant-numeric:normal"/></g><g transform="translate(-97.657 -108.64)" fill="#ff2a2a" aria-label="v"><path d="m112.66 108.64-6.2202 15.372h-2.6009l-6.1789-15.372h2.8073l4.7615 12.234 4.7202-12.234z" fill="#ff2a2a" stroke-width=".70459"/></g></svg>
